# xmcd
#
# Track frame offsets:
#	150
#	12469
#	26133
#	36709
#	48502
#	61310
#	74264
#	86606
#	101133
#	111089
#	123658
#	130227
#	145197
#	159249
#	169471
#	182712
#	191368
#	208879
#	223856
#	235763
#	248437
#	260191
#	286531
#
# Disc length: 4002 seconds
#
# Revision: 0
# Processed by: cddbd v1.5.2PL0 Copyright (c) Steve Scherf et al.
# Submitted via: EZCDAudioConverter 2.1.7.1
#
DISCID=5f0fa017
DTITLE=Henry Mancini - Classic Soundtrack Collection
DYEAR=1900
DGENRE=
TTITLE0=Two For The Road [Vocal]
TTITLE1=Something For Audrey
TTITLE2=The Lovely Life
TTITLE3=The Chaser
TTITLE4=Something Loose
TTITLE5=Happy Barefoot Boy
TTITLE6=Two For The Road (Main Title) [Instrumental]
TTITLE7=Congarocka
TTITLE8=French Provincial
TTITLE9=The Donk
TTITLE10=Domain St. Juste (Din-Din Music)
TTITLE11=Two For The Road [Instrumental]
TTITLE12=Two For The Road
TTITLE13=Arabesque
TTITLE14=We've Loved Before (Yasmin's Theme)
TTITLE15=Ascot
TTITLE16=Dream Street
TTITLE17=Façade
TTITLE18=Something For Sophia
TTITLE19=We've Loved Before (Yasmin's Theme)
TTITLE20=Shower Of Paradise
TTITLE21=The Zoo Chase
TTITLE22=Bagdad On Thames
EXTD=
EXTT0=
EXTT1=
EXTT2=
EXTT3=
EXTT4=
EXTT5=
EXTT6=
EXTT7=
EXTT8=
EXTT9=
EXTT10=
EXTT11=
EXTT12=
EXTT13=
EXTT14=
EXTT15=
EXTT16=
EXTT17=
EXTT18=
EXTT19=
EXTT20=
EXTT21=
EXTT22=
PLAYORDER=
